HIERARCHY
ROOT hip
{
  OFFSET 0 0 0
  CHANNELS 6 Xposition Yposition Zposition Zrotation Yrotation Xrotation
  JOINT abdomen
  {
    OFFSET 0 20.6881 -0.73152
    CHANNELS 3 Zrotation Xrotation Yrotation
    JOINT chest
    {
      OFFSET 0 11.7043 -0.48768
      CHANNELS 3 Zrotation Xrotation Yrotation
      JOINT neck
      {
        OFFSET 0 22.1894 -2.19456
        CHANNELS 3 Zrotation Xrotation Yrotation
        JOINT head
        {
          OFFSET -0.24384 7.07133 1.2192
          CHANNELS 3 Zrotation Xrotation Yrotation
          JOINT leftEye
          {
            OFFSET 4.14528 8.04674 8.04672
            CHANNELS 3 Zrotation Xrotation Yrotation
            End Site
            {
              OFFSET 1 0 0
            }
          }
          JOINT rightEye
          {
            OFFSET -3.6576 8.04674 8.04672
            CHANNELS 3 Zrotation Xrotation Yrotation
            End Site
            {
              OFFSET 1 0 0
            }
          }
        }
      }
      JOINT rCollar
      {
        OFFSET -2.68224 19.2634 -4.8768
        CHANNELS 3 Zrotation Xrotation Yrotation
        JOINT rShldr
        {
          OFFSET -8.77824 -1.95073 1.46304
          CHANNELS 3 Zrotation Xrotation Yrotation
          JOINT rForeArm
          {
            OFFSET -28.1742 -1.7115 0.48768
            CHANNELS 3 Zrotation Xrotation Yrotation
            JOINT rHand
            {
              OFFSET -22.5879 0.773209 7.07136
              CHANNELS 3 Zrotation Xrotation Yrotation
              JOINT rThumb1
              {
                OFFSET -1.2192 -0.487915 3.41376
                CHANNELS 3 Zrotation Xrotation Yrotation
                JOINT rThumb2
                {
                  OFFSET -3.37035 -0.52449 3.41376
                  CHANNELS 3 Zrotation Xrotation Yrotation
                  End Site
                  {
                    OFFSET -1.78271 -1.18214 1.43049
                  }
                }
              }
              JOINT rIndex1
              {
                OFFSET -7.75947 0.938293 5.60832
                CHANNELS 3 Zrotation Xrotation Yrotation
                JOINT rIndex2
                {
                  OFFSET -2.54057 -0.884171 1.56538
                  CHANNELS 3 Zrotation Xrotation Yrotation
                  End Site
                  {
                    OFFSET -1.62519 -0.234802 1.16502
                  }
                }
              }
              JOINT rMid1
              {
                OFFSET -8.24714 1.18213 3.41376
                CHANNELS 3 Zrotation Xrotation Yrotation
                JOINT rMid2
                {
                  OFFSET -3.10165 -0.590103 1.0647
                  CHANNELS 3 Zrotation Xrotation Yrotation
                  End Site
                  {
                    OFFSET -2.48547 -0.328903 0.83742
                  }
                }
              }
              JOINT rRing1
              {
                OFFSET -8.82822 0.546677 1.51678
                CHANNELS 3 Zrotation Xrotation Yrotation
                JOINT rRing2
                {
                  OFFSET -2.60934 -0.819778 -0.0198488
                  CHANNELS 3 Zrotation Xrotation Yrotation
                  End Site
                  {
                    OFFSET -2.33842 -0.294052 0.168128
                  }
                }
              }
              JOINT rPinky1
              {
                OFFSET -8.27202 -0.0477905 -0.4584
                CHANNELS 3 Zrotation Xrotation Yrotation
                JOINT rPinky2
                {
                  OFFSET -1.82734 -0.647385 -0.700984
                  CHANNELS 3 Zrotation Xrotation Yrotation
                  End Site
                  {
                    OFFSET -1.69225 -0.51767 -0.607171
                  }
                }
              }
            }
          }
        }
      }
      JOINT lCollar
      {
        OFFSET 2.68224 19.2634 -4.8768
        CHANNELS 3 Zrotation Xrotation Yrotation
        JOINT lShldr
        {
          OFFSET 8.77824 -1.95073 1.46304
          CHANNELS 3 Zrotation Xrotation Yrotation
          JOINT lForeArm
          {
            OFFSET 28.1742 -1.7115 0.48768
            CHANNELS 3 Zrotation Xrotation Yrotation
            JOINT lHand
            {
              OFFSET 22.5879 0.773209 7.07136
              CHANNELS 3 Zrotation Xrotation Yrotation
              JOINT lThumb1
              {
                OFFSET 1.2192 -0.487915 3.41376
                CHANNELS 3 Zrotation Xrotation Yrotation
                JOINT lThumb2
                {
                  OFFSET 3.37035 -0.52449 3.41376
                  CHANNELS 3 Zrotation Xrotation Yrotation
                  End Site
                  {
                    OFFSET 1.78271 -1.18214 1.43049
                  }
                }
              }
              JOINT lIndex1
              {
                OFFSET 7.75947 0.938293 5.60832
                CHANNELS 3 Zrotation Xrotation Yrotation
                JOINT lIndex2
                {
                  OFFSET 2.54057 -0.884171 1.56538
                  CHANNELS 3 Zrotation Xrotation Yrotation
                  End Site
                  {
                    OFFSET 1.62519 -0.234802 1.16502
                  }
                }
              }
              JOINT lMid1
              {
                OFFSET 8.24714 1.18213 3.41376
                CHANNELS 3 Zrotation Xrotation Yrotation
                JOINT lMid2
                {
                  OFFSET 3.10165 -0.590103 1.0647
                  CHANNELS 3 Zrotation Xrotation Yrotation
                  End Site
                  {
                    OFFSET 2.48547 -0.328903 0.83742
                  }
                }
              }
              JOINT lRing1
              {
                OFFSET 8.82822 0.546677 1.51678
                CHANNELS 3 Zrotation Xrotation Yrotation
                JOINT lRing2
                {
                  OFFSET 2.60934 -0.819778 -0.0198488
                  CHANNELS 3 Zrotation Xrotation Yrotation
                  End Site
                  {
                    OFFSET 2.33842 -0.294052 0.168128
                  }
                }
              }
              JOINT lPinky1
              {
                OFFSET 8.27202 -0.0477905 -0.4584
                CHANNELS 3 Zrotation Xrotation Yrotation
                JOINT lPinky2
                {
                  OFFSET 1.82734 -0.647385 -0.700984
                  CHANNELS 3 Zrotation Xrotation Yrotation
                  End Site
                  {
                    OFFSET 1.69225 -0.51767 -0.607171
                  }
                }
              }
            }
          }
        }
      }
    }
  }
  JOINT rButtock
  {
    OFFSET -8.77824 4.35084 1.2192
    CHANNELS 3 Zrotation Xrotation Yrotation
    JOINT rThigh
    {
      OFFSET 0 -1.70687 -2.19456
      CHANNELS 3 Zrotation Xrotation Yrotation
      JOINT rShin
      {
        OFFSET 0 -36.8199 0.73152
        CHANNELS 3 Zrotation Xrotation Yrotation
        JOINT rFoot
        {
          OFFSET 0.73152 -45.1104 -5.12064
          CHANNELS 3 Zrotation Xrotation Yrotation
          End Site
          {
            OFFSET -1.1221 -3.69964 12.103
          }
        }
      }
    }
  }
  JOINT lButtock
  {
    OFFSET 8.77824 4.35084 1.2192
    CHANNELS 3 Zrotation Xrotation Yrotation
    JOINT lThigh
    {
      OFFSET 0 -1.70687 -2.19456
      CHANNELS 3 Zrotation Xrotation Yrotation
      JOINT lShin
      {
        OFFSET 0 -36.8199 0.73152
        CHANNELS 3 Zrotation Xrotation Yrotation
        JOINT lFoot
        {
          OFFSET -0.73152 -45.1104 -5.12064
          CHANNELS 3 Zrotation Xrotation Yrotation
          End Site
          {
            OFFSET 1.1221 -3.69964 12.103
          }
        }
      }
    }
  }
}
MOTION
Frames:	4
Frame Time:	0.00833333
-34.6931 85.1932 214.594 0.0 0.0 0.0 0.572863 -0.0032425 0.0163892 0.158164 -0.00505497 0.0274049 -7.15006e-15 -1.59028e-15 -9.31803e-17 -2.1419e-14 3.18055e-15 -2.60905e-16 -0.0 0.0 0.0 -0.0 0.0 0.0 -3.48012e-15 9.31803e-18 1.49089e-16 -7.24188e-14 6.33626e-16 0.0 -1.28246e-12 3.94588e-13 -4.77083e-14 -1.47263e-11 -3.41288e-13 -1.7175e-13 -3.47308e-11 1.08114e-13 -4.45278e-13 -5.999e-11 1.87653e-13 -7.78441e-13 -3.47221e-11 1.11319e-13 -4.58e-13 7.73091 5.47488 0.417314 -3.47308e-11 1.08636e-13 -4.51639e-13 2.90554 0.965183 0.102902 -3.47233e-11 1.09033e-13 -4.49253e-13 10.2786 0.731801 0.0259123 -3.47321e-11 1.06946e-13 -4.35736e-13 2.22167 -0.733487 -0.20892 -3.47758e-15 1.06769e-17 -2.48481e-16 -7.7511e-14 5.46658e-16 -2.18663e-15 -1.29096e-12 -3.75107e-13 3.49861e-14 -1.47214e-11 4.36283e-13 -2.29e-13 -3.47366e-11 1.26816e-13 -4.35736e-13 -5.99801e-11 2.19458e-13 -7.64128e-13 -3.4744e-11 1.308e-13 -4.38917e-13 -7.73091 5.47488 -0.417314 -3.47362e-11 1.27719e-13 -4.35736e-13 -2.90554 0.965183 -0.102902 -3.47474e-11 1.27222e-13 -4.45278e-13 -10.2786 0.731801 -0.0259123 -3.47354e-11 1.26825e-13 -4.54819e-13 -2.22167 -0.733487 0.20892 -2.03217e-16 0.0 -3.88251e-19 0.920413 -4.54483 -0.0776193 -0.00189483 2.6807 -0.00763183 -0.489857 1.86451 0.0936483 2.03217e-16 0.0 3.88251e-19 -0.0477538 -2.33549 0.0218158 0.00803173 -1.3211 0.0687492 0.481309 3.65688 -0.128863
-39.5624 82.8063 206.14 -139.013 -83.9894 152.643 1.17897 -4.77893 1.36737 0.348516 -0.109032 0.335979 -8.43063 8.91846 -1.85765 18.9761 -9.77576 -1.26302 -0.0 0.0 0.0 -0.0 0.0 0.0 -3.01666e-14 -3.29235e-12 -9.13982e-15 22.4079 11.7673 0.297683 -3.51839 -1.48073 5.61674 0.0800653 6.28366 0.864046 -1.14872e-09 -3.06045e-10 4.11516e-10 -1.97742e-09 -5.27585e-10 7.32222e-10 -1.14871e-09 -3.06041e-10 4.11506e-10 7.73091 5.47488 0.417314 -1.14872e-09 -3.06043e-10 4.11514e-10 2.90554 0.965183 0.102902 -1.14871e-09 -3.06043e-10 4.11516e-10 10.2786 0.731801 0.0259123 -1.14872e-09 -3.06044e-10 4.11529e-10 2.22167 -0.733487 -0.20892 -3.0203e-14 -3.29235e-12 -9.51255e-15 -22.5723 13.4247 1.97795 5.27401 -2.65194 -7.94109 -0.234369 -10.775 1.41942 1.33041e-10 -2.4164e-12 -1.12351e-09 2.60421e-10 -1.16362e-11 -1.93494e-09 1.33033e-10 -2.40886e-12 -1.1235e-09 -7.73091 5.47488 -0.417314 1.33041e-10 -2.4156e-12 -1.1235e-09 -2.90554 0.965183 -0.102902 1.33029e-10 -2.4158e-12 -1.12351e-09 -10.2786 0.731801 -0.0259123 1.33043e-10 -2.41261e-12 -1.12352e-09 -2.22167 -0.733487 0.20892 -2.03217e-16 0.0 -3.88251e-19 0.579128 -8.33088 -0.887366 0.0109363 7.35799 0.0731857 -0.378867 -2.88424 1.17191 2.03217e-16 0.0 3.88251e-19 0.827145 -8.07477 2.55463 0.00837903 5.39043 -0.0337837 0.191077 -1.51134 -2.73325
-39.7539 82.8342 205.741 -138.725 -83.731 151.997 2.0669 -9.81551 2.82958 0.552122 -0.218034 0.663 -16.6846 18.3143 -3.97682 38.5453 -20.1023 -2.71886 -0.0 0.0 0.0 -0.0 0.0 0.0 -5.88181e-14 -6.83038e-12 -1.91548e-14 45.9528 24.2223 0.659338 -6.92522 -2.99953 11.5687 -0.0461988 12.9192 1.81237 -2.44531e-09 -6.60485e-10 8.67379e-10 -4.20957e-09 -1.13859e-09 1.54455e-09 -2.44531e-09 -6.60482e-10 8.67371e-10 7.73091 5.47488 0.417314 -2.44531e-09 -6.60483e-10 8.67382e-10 2.90554 0.965183 0.102902 -2.44531e-09 -6.60483e-10 8.67384e-10 10.2786 0.731801 0.0259123 -2.44532e-09 -6.60483e-10 8.67395e-10 2.22167 -0.733487 -0.20892 -5.88973e-14 -6.83038e-12 -1.95026e-14 -47.5598 27.5583 4.46156 10.0574 -5.28508 -16.389 0.140125 -22.1372 3.09628 3.11704e-10 -4.91578e-12 -2.40938e-09 6.04073e-10 -2.46487e-11 -4.14986e-09 3.11696e-10 -4.90424e-12 -2.40936e-09 -7.73091 5.47488 -0.417314 3.11704e-10 -4.91509e-12 -2.40937e-09 -2.90554 0.965183 -0.102902 3.11691e-10 -4.91498e-12 -2.40938e-09 -10.2786 0.731801 -0.0259123 3.11707e-10 -4.90782e-12 -2.40939e-09 -2.22167 -0.733487 0.20892 -2.03217e-16 0.0 -3.88251e-19 0.102579 -12.3315 -1.76471 0.00983379 12.3022 0.161047 -0.064804 -7.8981 2.3352 2.03217e-16 0.0 3.88251e-19 2.3229 -14.1001 5.34501 0.0353066 12.4851 -0.14527 -0.628884 -6.94577 -5.52546
-39.8067 82.834 205.823 -139.997 -83.8864 153.211 3.0846 -14.2977 4.18493 0.732579 -0.316947 0.953139 -23.3852 26.636 -6.16161 55.4757 -29.2659 -4.28133 -0.0 0.0 0.0 -0.0 0.0 0.0 -8.35397e-14 -9.87706e-12 -2.77176e-14 66.7868 35.2977 1.07123 -9.69613 -4.27174 16.8929 -0.355506 18.8333 2.72242 -3.37669e-09 -9.1835e-10 1.23544e-09 -5.81229e-09 -1.58313e-09 2.19822e-09 -3.37669e-09 -9.18346e-10 1.23543e-09 7.73091 5.47488 0.417314 -3.37669e-09 -9.18347e-10 1.23545e-09 2.90554 0.965183 0.102902 -3.37669e-09 -9.18347e-10 1.23545e-09 10.2786 0.731801 0.0259123 -3.3767e-09 -9.18346e-10 1.23546e-09 2.22167 -0.733487 -0.20892 -8.36538e-14 -9.87706e-12 -2.80407e-14 -71.2128 40.0513 7.5491 13.6722 -7.34583 -24.0069 1.14444 -32.238 4.94734 4.68596e-10 -7.50282e-12 -3.36964e-09 9.01223e-10 -3.53476e-11 -5.80328e-09 4.68588e-10 -7.48817e-12 -3.36961e-09 -7.73091 5.47488 -0.417314 4.68596e-10 -7.50223e-12 -3.36963e-09 -2.90554 0.965183 -0.102902 4.68583e-10 -7.50185e-12 -3.36964e-09 -10.2786 0.731801 -0.0259123 4.686e-10 -7.49148e-12 -3.36965e-09 -2.22167 -0.733487 0.20892 -2.03217e-16 0.0 -3.88251e-19 -0.436256 -15.8906 -2.57783 -0.00452689 16.7124 0.243272 0.389486 -12.3624 3.40308 2.03217e-16 0.0 3.88251e-19 4.17482 -19.4008 8.00131 0.083931 18.8133 -0.251818 -1.81707 -11.7377 -8.11039
